<mxfile host="app.diagrams.net" agent="Mozilla/5.0 (Windows NT 10.0; Win64; x64) AppleWebKit/537.36 (KHTML, like Gecko) Chrome/134.0.0.0 Safari/537.36 Edg/134.0.0.0" version="25.0.3">
  <diagram id="C5RBs43oDa-KdzZeNtuy" name="Page-1">
    <mxGraphModel dx="1434" dy="760" grid="1" gridSize="10" guides="1" tooltips="1" connect="1" arrows="1" fold="1" page="1" pageScale="1" pageWidth="2339" pageHeight="3300" math="0" shadow="0">
      <root>
        <mxCell id="WIyWlLk6GJQsqaUBKTNV-0" />
        <mxCell id="WIyWlLk6GJQsqaUBKTNV-1" parent="WIyWlLk6GJQsqaUBKTNV-0" />
        <mxCell id="f9Ie7XSDKk7mg4L2ML1A-11" value="" style="edgeStyle=orthogonalEdgeStyle;rounded=0;orthogonalLoop=1;jettySize=auto;html=1;" edge="1" parent="WIyWlLk6GJQsqaUBKTNV-1" source="f9Ie7XSDKk7mg4L2ML1A-0" target="f9Ie7XSDKk7mg4L2ML1A-10">
          <mxGeometry relative="1" as="geometry" />
        </mxCell>
        <mxCell id="f9Ie7XSDKk7mg4L2ML1A-0" value="开始" style="strokeWidth=2;html=1;shape=mxgraph.flowchart.start_2;whiteSpace=wrap;" vertex="1" parent="WIyWlLk6GJQsqaUBKTNV-1">
          <mxGeometry x="130" y="100" width="70" height="60" as="geometry" />
        </mxCell>
        <mxCell id="f9Ie7XSDKk7mg4L2ML1A-1" value="WMS给WCS任务下发流程" style="text;html=1;align=center;verticalAlign=middle;whiteSpace=wrap;rounded=0;" vertex="1" parent="WIyWlLk6GJQsqaUBKTNV-1">
          <mxGeometry x="85" y="50" width="160" height="30" as="geometry" />
        </mxCell>
        <mxCell id="f9Ie7XSDKk7mg4L2ML1A-5" value="" style="edgeStyle=orthogonalEdgeStyle;rounded=0;orthogonalLoop=1;jettySize=auto;html=1;" edge="1" parent="WIyWlLk6GJQsqaUBKTNV-1" source="f9Ie7XSDKk7mg4L2ML1A-2" target="f9Ie7XSDKk7mg4L2ML1A-3">
          <mxGeometry relative="1" as="geometry" />
        </mxCell>
        <mxCell id="f9Ie7XSDKk7mg4L2ML1A-2" value="WCS接收任务" style="shape=parallelogram;html=1;strokeWidth=2;perimeter=parallelogramPerimeter;whiteSpace=wrap;rounded=1;arcSize=12;size=0.23;" vertex="1" parent="WIyWlLk6GJQsqaUBKTNV-1">
          <mxGeometry x="115" y="310" width="100" height="60" as="geometry" />
        </mxCell>
        <mxCell id="f9Ie7XSDKk7mg4L2ML1A-8" value="" style="edgeStyle=orthogonalEdgeStyle;rounded=0;orthogonalLoop=1;jettySize=auto;html=1;" edge="1" parent="WIyWlLk6GJQsqaUBKTNV-1" source="f9Ie7XSDKk7mg4L2ML1A-3" target="f9Ie7XSDKk7mg4L2ML1A-7">
          <mxGeometry relative="1" as="geometry" />
        </mxCell>
        <mxCell id="f9Ie7XSDKk7mg4L2ML1A-3" value="立体库状态" style="rhombus;whiteSpace=wrap;html=1;" vertex="1" parent="WIyWlLk6GJQsqaUBKTNV-1">
          <mxGeometry x="125" y="420" width="80" height="80" as="geometry" />
        </mxCell>
        <mxCell id="f9Ie7XSDKk7mg4L2ML1A-17" value="" style="edgeStyle=orthogonalEdgeStyle;rounded=0;orthogonalLoop=1;jettySize=auto;html=1;" edge="1" parent="WIyWlLk6GJQsqaUBKTNV-1" source="f9Ie7XSDKk7mg4L2ML1A-7" target="f9Ie7XSDKk7mg4L2ML1A-16">
          <mxGeometry relative="1" as="geometry" />
        </mxCell>
        <mxCell id="f9Ie7XSDKk7mg4L2ML1A-7" value="读取ING,任务队列判重" style="rhombus;whiteSpace=wrap;html=1;" vertex="1" parent="WIyWlLk6GJQsqaUBKTNV-1">
          <mxGeometry x="125" y="545" width="80" height="80" as="geometry" />
        </mxCell>
        <mxCell id="f9Ie7XSDKk7mg4L2ML1A-12" value="" style="edgeStyle=orthogonalEdgeStyle;rounded=0;orthogonalLoop=1;jettySize=auto;html=1;" edge="1" parent="WIyWlLk6GJQsqaUBKTNV-1" source="f9Ie7XSDKk7mg4L2ML1A-10" target="f9Ie7XSDKk7mg4L2ML1A-2">
          <mxGeometry relative="1" as="geometry" />
        </mxCell>
        <mxCell id="f9Ie7XSDKk7mg4L2ML1A-10" value="WMS下发&lt;div&gt;任务&lt;/div&gt;" style="shape=parallelogram;perimeter=parallelogramPerimeter;whiteSpace=wrap;html=1;fixedSize=1;" vertex="1" parent="WIyWlLk6GJQsqaUBKTNV-1">
          <mxGeometry x="105" y="200" width="120" height="60" as="geometry" />
        </mxCell>
        <mxCell id="f9Ie7XSDKk7mg4L2ML1A-13" value="" style="endArrow=classic;html=1;rounded=0;exitX=1;exitY=0.5;exitDx=0;exitDy=0;entryX=1;entryY=0.5;entryDx=0;entryDy=0;" edge="1" parent="WIyWlLk6GJQsqaUBKTNV-1" source="f9Ie7XSDKk7mg4L2ML1A-3" target="f9Ie7XSDKk7mg4L2ML1A-10">
          <mxGeometry width="50" height="50" relative="1" as="geometry">
            <mxPoint x="390" y="420" as="sourcePoint" />
            <mxPoint x="310" y="240" as="targetPoint" />
            <Array as="points">
              <mxPoint x="310" y="460" />
              <mxPoint x="310" y="230" />
            </Array>
          </mxGeometry>
        </mxCell>
        <mxCell id="f9Ie7XSDKk7mg4L2ML1A-14" value="返回失败" style="text;html=1;align=center;verticalAlign=middle;whiteSpace=wrap;rounded=0;" vertex="1" parent="WIyWlLk6GJQsqaUBKTNV-1">
          <mxGeometry x="250" y="325" width="60" height="30" as="geometry" />
        </mxCell>
        <mxCell id="f9Ie7XSDKk7mg4L2ML1A-15" value="正常" style="text;html=1;align=center;verticalAlign=middle;whiteSpace=wrap;rounded=0;" vertex="1" parent="WIyWlLk6GJQsqaUBKTNV-1">
          <mxGeometry x="165" y="500" width="60" height="30" as="geometry" />
        </mxCell>
        <mxCell id="f9Ie7XSDKk7mg4L2ML1A-19" value="" style="edgeStyle=orthogonalEdgeStyle;rounded=0;orthogonalLoop=1;jettySize=auto;html=1;" edge="1" parent="WIyWlLk6GJQsqaUBKTNV-1" source="f9Ie7XSDKk7mg4L2ML1A-16" target="f9Ie7XSDKk7mg4L2ML1A-18">
          <mxGeometry relative="1" as="geometry" />
        </mxCell>
        <mxCell id="f9Ie7XSDKk7mg4L2ML1A-16" value="任务加入队列" style="shape=parallelogram;html=1;strokeWidth=2;perimeter=parallelogramPerimeter;whiteSpace=wrap;rounded=1;arcSize=12;size=0.23;" vertex="1" parent="WIyWlLk6GJQsqaUBKTNV-1">
          <mxGeometry x="115" y="660" width="100" height="60" as="geometry" />
        </mxCell>
        <mxCell id="f9Ie7XSDKk7mg4L2ML1A-21" value="" style="edgeStyle=orthogonalEdgeStyle;rounded=0;orthogonalLoop=1;jettySize=auto;html=1;entryX=0;entryY=0.5;entryDx=0;entryDy=0;" edge="1" parent="WIyWlLk6GJQsqaUBKTNV-1" source="f9Ie7XSDKk7mg4L2ML1A-18" target="f9Ie7XSDKk7mg4L2ML1A-10">
          <mxGeometry relative="1" as="geometry">
            <mxPoint x="80" y="230" as="targetPoint" />
            <Array as="points">
              <mxPoint x="40" y="810" />
              <mxPoint x="40" y="230" />
            </Array>
          </mxGeometry>
        </mxCell>
        <mxCell id="f9Ie7XSDKk7mg4L2ML1A-18" value="结束" style="strokeWidth=2;html=1;shape=mxgraph.flowchart.start_2;whiteSpace=wrap;" vertex="1" parent="WIyWlLk6GJQsqaUBKTNV-1">
          <mxGeometry x="115" y="760" width="100" height="100" as="geometry" />
        </mxCell>
        <mxCell id="f9Ie7XSDKk7mg4L2ML1A-22" value="WCS给立体库下发任务" style="text;html=1;align=center;verticalAlign=middle;whiteSpace=wrap;rounded=0;" vertex="1" parent="WIyWlLk6GJQsqaUBKTNV-1">
          <mxGeometry x="463" y="50" width="170" height="30" as="geometry" />
        </mxCell>
        <mxCell id="f9Ie7XSDKk7mg4L2ML1A-23" value="开始" style="strokeWidth=2;html=1;shape=mxgraph.flowchart.start_2;whiteSpace=wrap;" vertex="1" parent="WIyWlLk6GJQsqaUBKTNV-1">
          <mxGeometry x="493" y="90" width="100" height="70" as="geometry" />
        </mxCell>
        <mxCell id="f9Ie7XSDKk7mg4L2ML1A-29" value="" style="edgeStyle=orthogonalEdgeStyle;rounded=0;orthogonalLoop=1;jettySize=auto;html=1;" edge="1" parent="WIyWlLk6GJQsqaUBKTNV-1" target="f9Ie7XSDKk7mg4L2ML1A-25">
          <mxGeometry relative="1" as="geometry">
            <mxPoint x="543" y="370" as="sourcePoint" />
          </mxGeometry>
        </mxCell>
        <mxCell id="f9Ie7XSDKk7mg4L2ML1A-52" style="edgeStyle=orthogonalEdgeStyle;rounded=0;orthogonalLoop=1;jettySize=auto;html=1;entryX=1;entryY=0.5;entryDx=0;entryDy=0;" edge="1" parent="WIyWlLk6GJQsqaUBKTNV-1" source="f9Ie7XSDKk7mg4L2ML1A-24" target="f9Ie7XSDKk7mg4L2ML1A-49">
          <mxGeometry relative="1" as="geometry" />
        </mxCell>
        <mxCell id="f9Ie7XSDKk7mg4L2ML1A-53" style="edgeStyle=orthogonalEdgeStyle;rounded=0;orthogonalLoop=1;jettySize=auto;html=1;entryX=0;entryY=0.5;entryDx=0;entryDy=0;" edge="1" parent="WIyWlLk6GJQsqaUBKTNV-1" source="f9Ie7XSDKk7mg4L2ML1A-24" target="f9Ie7XSDKk7mg4L2ML1A-48">
          <mxGeometry relative="1" as="geometry" />
        </mxCell>
        <mxCell id="f9Ie7XSDKk7mg4L2ML1A-24" value="是否待机状态" style="rhombus;whiteSpace=wrap;html=1;" vertex="1" parent="WIyWlLk6GJQsqaUBKTNV-1">
          <mxGeometry x="503" y="300" width="80" height="80" as="geometry" />
        </mxCell>
        <mxCell id="f9Ie7XSDKk7mg4L2ML1A-27" value="" style="edgeStyle=orthogonalEdgeStyle;rounded=0;orthogonalLoop=1;jettySize=auto;html=1;" edge="1" parent="WIyWlLk6GJQsqaUBKTNV-1" source="f9Ie7XSDKk7mg4L2ML1A-25" target="f9Ie7XSDKk7mg4L2ML1A-26">
          <mxGeometry relative="1" as="geometry" />
        </mxCell>
        <mxCell id="f9Ie7XSDKk7mg4L2ML1A-25" value="取出队列中任务rightPop(TASK_QUEUE)" style="rounded=1;whiteSpace=wrap;html=1;absoluteArcSize=1;arcSize=14;strokeWidth=2;" vertex="1" parent="WIyWlLk6GJQsqaUBKTNV-1">
          <mxGeometry x="465.5" y="410" width="155" height="100" as="geometry" />
        </mxCell>
        <mxCell id="f9Ie7XSDKk7mg4L2ML1A-36" value="" style="edgeStyle=orthogonalEdgeStyle;rounded=0;orthogonalLoop=1;jettySize=auto;html=1;" edge="1" parent="WIyWlLk6GJQsqaUBKTNV-1" source="f9Ie7XSDKk7mg4L2ML1A-26" target="f9Ie7XSDKk7mg4L2ML1A-32">
          <mxGeometry relative="1" as="geometry" />
        </mxCell>
        <mxCell id="f9Ie7XSDKk7mg4L2ML1A-26" value="将取出的任务放入正在执行中(WMS,PLC)(如不成功则还回数据)" style="rounded=1;whiteSpace=wrap;html=1;absoluteArcSize=1;arcSize=14;strokeWidth=2;" vertex="1" parent="WIyWlLk6GJQsqaUBKTNV-1">
          <mxGeometry x="465.5" y="570" width="155" height="100" as="geometry" />
        </mxCell>
        <mxCell id="f9Ie7XSDKk7mg4L2ML1A-40" value="" style="edgeStyle=orthogonalEdgeStyle;rounded=0;orthogonalLoop=1;jettySize=auto;html=1;" edge="1" parent="WIyWlLk6GJQsqaUBKTNV-1" source="f9Ie7XSDKk7mg4L2ML1A-30" target="f9Ie7XSDKk7mg4L2ML1A-39">
          <mxGeometry relative="1" as="geometry" />
        </mxCell>
        <mxCell id="f9Ie7XSDKk7mg4L2ML1A-30" value="更新redis 正在执行" style="rounded=1;whiteSpace=wrap;html=1;absoluteArcSize=1;arcSize=14;strokeWidth=2;" vertex="1" parent="WIyWlLk6GJQsqaUBKTNV-1">
          <mxGeometry x="465.5" y="820" width="155" height="50" as="geometry" />
        </mxCell>
        <mxCell id="f9Ie7XSDKk7mg4L2ML1A-34" style="edgeStyle=orthogonalEdgeStyle;rounded=0;orthogonalLoop=1;jettySize=auto;html=1;entryX=0.5;entryY=1;entryDx=0;entryDy=0;" edge="1" parent="WIyWlLk6GJQsqaUBKTNV-1" source="f9Ie7XSDKk7mg4L2ML1A-32" target="f9Ie7XSDKk7mg4L2ML1A-33">
          <mxGeometry relative="1" as="geometry" />
        </mxCell>
        <mxCell id="f9Ie7XSDKk7mg4L2ML1A-37" value="" style="edgeStyle=orthogonalEdgeStyle;rounded=0;orthogonalLoop=1;jettySize=auto;html=1;" edge="1" parent="WIyWlLk6GJQsqaUBKTNV-1" source="f9Ie7XSDKk7mg4L2ML1A-32" target="f9Ie7XSDKk7mg4L2ML1A-30">
          <mxGeometry relative="1" as="geometry" />
        </mxCell>
        <mxCell id="f9Ie7XSDKk7mg4L2ML1A-32" value="下发与否" style="rhombus;whiteSpace=wrap;html=1;" vertex="1" parent="WIyWlLk6GJQsqaUBKTNV-1">
          <mxGeometry x="503" y="700" width="80" height="80" as="geometry" />
        </mxCell>
        <mxCell id="f9Ie7XSDKk7mg4L2ML1A-35" value="" style="edgeStyle=orthogonalEdgeStyle;rounded=0;orthogonalLoop=1;jettySize=auto;html=1;" edge="1" parent="WIyWlLk6GJQsqaUBKTNV-1" source="f9Ie7XSDKk7mg4L2ML1A-33" target="f9Ie7XSDKk7mg4L2ML1A-25">
          <mxGeometry relative="1" as="geometry" />
        </mxCell>
        <mxCell id="f9Ie7XSDKk7mg4L2ML1A-33" value="归还队列数据" style="rounded=1;whiteSpace=wrap;html=1;absoluteArcSize=1;arcSize=14;strokeWidth=2;" vertex="1" parent="WIyWlLk6GJQsqaUBKTNV-1">
          <mxGeometry x="710" y="410" width="100" height="100" as="geometry" />
        </mxCell>
        <mxCell id="f9Ie7XSDKk7mg4L2ML1A-38" value="下发失败" style="text;html=1;align=center;verticalAlign=middle;whiteSpace=wrap;rounded=0;" vertex="1" parent="WIyWlLk6GJQsqaUBKTNV-1">
          <mxGeometry x="760" y="645" width="60" height="30" as="geometry" />
        </mxCell>
        <mxCell id="f9Ie7XSDKk7mg4L2ML1A-39" value="结束" style="strokeWidth=2;html=1;shape=mxgraph.flowchart.start_2;whiteSpace=wrap;" vertex="1" parent="WIyWlLk6GJQsqaUBKTNV-1">
          <mxGeometry x="493" y="900" width="100" height="100" as="geometry" />
        </mxCell>
        <mxCell id="f9Ie7XSDKk7mg4L2ML1A-41" value="WCS监控立体库完成任务" style="text;html=1;align=center;verticalAlign=middle;whiteSpace=wrap;rounded=0;" vertex="1" parent="WIyWlLk6GJQsqaUBKTNV-1">
          <mxGeometry x="930" y="50" width="170" height="30" as="geometry" />
        </mxCell>
        <mxCell id="f9Ie7XSDKk7mg4L2ML1A-42" value="开始" style="strokeWidth=2;html=1;shape=mxgraph.flowchart.start_2;whiteSpace=wrap;" vertex="1" parent="WIyWlLk6GJQsqaUBKTNV-1">
          <mxGeometry x="965" y="90" width="100" height="70" as="geometry" />
        </mxCell>
        <mxCell id="f9Ie7XSDKk7mg4L2ML1A-46" value="" style="edgeStyle=orthogonalEdgeStyle;rounded=0;orthogonalLoop=1;jettySize=auto;html=1;" edge="1" parent="WIyWlLk6GJQsqaUBKTNV-1" source="f9Ie7XSDKk7mg4L2ML1A-43" target="f9Ie7XSDKk7mg4L2ML1A-44">
          <mxGeometry relative="1" as="geometry" />
        </mxCell>
        <mxCell id="f9Ie7XSDKk7mg4L2ML1A-43" value="正在运行数据位监控" style="rhombus;whiteSpace=wrap;html=1;" vertex="1" parent="WIyWlLk6GJQsqaUBKTNV-1">
          <mxGeometry x="965" y="190" width="80" height="80" as="geometry" />
        </mxCell>
        <mxCell id="f9Ie7XSDKk7mg4L2ML1A-44" value="取出PLC历史数据,对比REDIS数据" style="rounded=1;whiteSpace=wrap;html=1;absoluteArcSize=1;arcSize=14;strokeWidth=2;" vertex="1" parent="WIyWlLk6GJQsqaUBKTNV-1">
          <mxGeometry x="927.5" y="310" width="155" height="80" as="geometry" />
        </mxCell>
        <mxCell id="f9Ie7XSDKk7mg4L2ML1A-47" value="没有值" style="text;html=1;align=center;verticalAlign=middle;whiteSpace=wrap;rounded=0;" vertex="1" parent="WIyWlLk6GJQsqaUBKTNV-1">
          <mxGeometry x="1022.5" y="270" width="60" height="30" as="geometry" />
        </mxCell>
        <mxCell id="f9Ie7XSDKk7mg4L2ML1A-50" style="edgeStyle=orthogonalEdgeStyle;rounded=0;orthogonalLoop=1;jettySize=auto;html=1;" edge="1" parent="WIyWlLk6GJQsqaUBKTNV-1" source="f9Ie7XSDKk7mg4L2ML1A-48" target="f9Ie7XSDKk7mg4L2ML1A-24">
          <mxGeometry relative="1" as="geometry" />
        </mxCell>
        <mxCell id="f9Ie7XSDKk7mg4L2ML1A-48" value="定时任务检查" style="rounded=1;whiteSpace=wrap;html=1;absoluteArcSize=1;arcSize=14;strokeWidth=2;" vertex="1" parent="WIyWlLk6GJQsqaUBKTNV-1">
          <mxGeometry x="393" y="180" width="100" height="70" as="geometry" />
        </mxCell>
        <mxCell id="f9Ie7XSDKk7mg4L2ML1A-51" style="edgeStyle=orthogonalEdgeStyle;rounded=0;orthogonalLoop=1;jettySize=auto;html=1;entryX=0.5;entryY=0;entryDx=0;entryDy=0;" edge="1" parent="WIyWlLk6GJQsqaUBKTNV-1" source="f9Ie7XSDKk7mg4L2ML1A-49" target="f9Ie7XSDKk7mg4L2ML1A-24">
          <mxGeometry relative="1" as="geometry" />
        </mxCell>
        <mxCell id="f9Ie7XSDKk7mg4L2ML1A-49" value="订阅推送" style="rounded=1;whiteSpace=wrap;html=1;absoluteArcSize=1;arcSize=14;strokeWidth=2;" vertex="1" parent="WIyWlLk6GJQsqaUBKTNV-1">
          <mxGeometry x="593" y="180" width="100" height="70" as="geometry" />
        </mxCell>
      </root>
    </mxGraphModel>
  </diagram>
</mxfile>
